<?xml version="1.0" encoding="utf-8"?>
<!-- Generator: Adobe Illustrator 22.1.0, SVG Export Plug-In . SVG Version: 6.00 Build 0)  -->
<svg version="1.1" id="Layer_1" focusable="false" xmlns="http://www.w3.org/2000/svg" xmlns:xlink="http://www.w3.org/1999/xlink"
	 x="0px" y="0px" viewBox="0 0 512 512" style="enable-background:new 0 0 512 512;" xml:space="preserve">
<style type="text/css">
	.st0{fill:#FFFFFF;}
</style>
<path class="st0" d="M352,96c0-53-43-96-96-96s-96,43-96,96s43,96,96,96S352,149,352,96z M233.6,241.1
	c-59.3-36.3-155.4-46.3-203.8-49.1C13.6,191.1,0,203.5,0,219.1v222.8c0,14.3,11.6,26.3,26.5,27c43.7,2.3,132,10.7,193,41.4
	c9.4,4.7,20.5-1.7,20.5-11.9v-246C240,247.9,237.7,243.6,233.6,241.1L233.6,241.1z M482.2,192.1c-48.4,2.7-144.5,12.7-203.8,49.1
	c-4.1,2.5-6.4,7-6.4,11.6v245.8c0,10.2,11.1,16.6,20.5,11.9c61-30.7,149.3-39.1,193-41.4c14.9-0.8,26.5-12.7,26.5-27.1V219.1
	C512,203.5,498.5,191.1,482.2,192.1z"/>
</svg>
